<?xml version="1.0" standalone="no"?><!DOCTYPE svg PUBLIC "-//W3C//DTD SVG 1.1//EN" "http://www.w3.org/Graphics/SVG/1.1/DTD/svg11.dtd"><svg t="1775555524136" class="icon" viewBox="0 0 1024 1024" version="1.1" xmlns="http://www.w3.org/2000/svg" p-id="5349" xmlns:xlink="http://www.w3.org/1999/xlink" width="200" height="200"><path d="M512 0c282.752 0 512 229.248 512 512s-229.248 512-512 512S0 794.752 0 512 229.248 0 512 0z m-31.274667 292.906667L316.16 457.472a46.506667 46.506667 0 0 0 65.834667 65.834667l87.466666-87.466667v336.170667a46.506667 46.506667 0 0 0 93.056 0v-331.52l82.773334 82.773333a46.506667 46.506667 0 0 0 65.834666-65.792L546.56 292.906667a46.506667 46.506667 0 0 0-65.834667 0z" p-id="5350"></path></svg>