<?xml version="1.0" standalone="no"?><!DOCTYPE svg PUBLIC "-//W3C//DTD SVG 1.1//EN" "http://www.w3.org/Graphics/SVG/1.1/DTD/svg11.dtd"><svg t="1775556138713" class="icon" viewBox="0 0 1024 1024" version="1.1" xmlns="http://www.w3.org/2000/svg" p-id="11670" xmlns:xlink="http://www.w3.org/1999/xlink" width="200" height="200"><path d="M780.826947 178.741895c17.165474 23.174737 25.222737 51.873684 22.689685 80.599579-0.215579 1.455158-0.377263 2.910316-0.646737 4.365473a130.101895 130.101895 0 0 1 79.009684 23.686737c55.969684 39.828211 77.446737 116.466526 60.227368 181.140211a132.096 132.096 0 0 1-41.067789 66.371368c2.802526 2.586947 5.551158 5.389474 8.138105 8.29979a127.838316 127.838316 0 0 1 31.258948 87.632842 170.711579 170.711579 0 0 1-36.45979 96.390737c-20.641684 28.052211-48.101053 54.568421-83.186526 63.083789-5.632 1.347368-11.344842 2.155789-17.111579 2.371368 0.431158 12.773053-1.724632 25.492211-6.305684 37.429895a151.255579 151.255579 0 0 1-66.640843 74.374737 173.325474 173.325474 0 0 1-77.446736 20.210526 169.175579 169.175579 0 0 1-81.461895-14.928842 79.279158 79.279158 0 0 1-46.376421-68.015158v-46.672842l-0.10779-125.035789c-0.134737-163.570526-0.323368-327.141053-0.538947-490.765474V167.612632c0-0.700632 0-1.347368 0.080842-2.048 1.616842-33.630316 27.486316-56.481684 57.721263-68.096 36.378947-14.012632 78.066526-5.362526 112.262737 10.13221a220.106105 220.106105 0 0 1 85.962105 71.168z m-155.621052 687.50821c14.255158 1.482105 26.138947 1.293474 39.073684-0.134737l2.317474-0.40421c8.003368-1.239579 20.291368-4.096 25.680842-6.602105 5.389474-2.479158 10.617263-5.362526 15.602526-8.623158 1.401263-0.862316 2.694737-1.805474 4.096-2.694737l1.536-1.158737c5.093053-4.042105 9.862737-8.461474 14.309053-13.20421 0.970105-1.104842 4.473263-5.335579 5.200842-6.117053a95.420632 95.420632 0 0 0 7.895579-13.123369c-0.727579 1.212632 2.101895-5.578105 2.586947-7.437473 0.458105-1.428211 1.293474-6.278737 1.616842-7.599158a79.764211 79.764211 0 0 0-0.080842-9.081263 56.050526 56.050526 0 0 0-3.422316-11.587369 95.797895 95.797895 0 0 0-7.68-12.746105c1.509053 2.236632-2.101895-2.506105-2.694737-3.179789a29.076211 29.076211 0 0 1 0-40.852211 29.911579 29.911579 0 0 1 41.418106 0c1.940211 1.940211 3.934316 3.799579 6.03621 5.551158-0.053895-0.269474 5.335579 3.664842 6.817684 4.527158 1.131789 0.565895 2.263579 1.104842 3.422316 1.616842 1.670737 0.592842 6.521263 1.428211 8.138106 1.778526 1.967158 0 3.907368 0 5.928421-0.107789a66.56 66.56 0 0 0 10.401684-2.910316c5.605053-2.640842 10.913684-5.820632 15.898947-9.485474 7.168-5.874526 13.797053-12.395789 19.833263-19.402105l2.586948-3.098947a207.575579 207.575579 0 0 0 22.986105-37.591579l0.997053-2.586948c2.425263-6.736842 4.284632-13.662316 5.497263-20.695579 0.754526-6.790737 0.835368-13.608421 0.269473-20.399157-0.215579-0.754526-0.916211-5.874526-1.320421-7.437474a100.163368 100.163368 0 0 0-4.096-13.338948 91.701895 91.701895 0 0 0-6.925473-12.126315c0.107789 0.377263-4.122947-4.904421-5.497263-6.305685a76.261053 76.261053 0 0 0-3.368422-3.152842c-0.673684-0.431158-4.392421-3.260632-5.766736-4.096a73.862737 73.862737 0 0 0-6.925474-3.718736 87.525053 87.525053 0 0 0-5.416421-1.724632c-1.751579-0.512-7.653053-1.536-8.650105-1.832421a104.690526 104.690526 0 0 0-9.350737-0.242526 28.887579 28.887579 0 1 1 0-57.748211l3.934316-0.323368c5.632-0.997053 11.156211-2.452211 16.545684-4.365474a65.859368 65.859368 0 0 0 27.082105-20.533895c4.042105-5.658947 7.545263-11.668211 10.374737-18.000842 2.667789-7.033263 4.634947-14.309053 5.874526-21.719579-0.080842 0 0.754526-6.602105 0.889263-8.353684 0.538947-9.027368 0.269474-18.081684-0.835368-27.082105l-0.538947-2.910316a168.798316 168.798316 0 0 0-6.25179-24.791579c-0.458105-1.347368-2.425263-6.144-2.910316-7.491368a122.179368 122.179368 0 0 0-8.111158-14.632422l-2.694736-4.015157-1.347369-1.805474a112.128 112.128 0 0 0-11.722105-11.910737c-0.970105-0.916211-1.940211-1.724632-2.991158-2.613895a110.376421 110.376421 0 0 0-15.602526-9.162105l-1.293474-0.592842a102.669474 102.669474 0 0 0-18.782316-5.12 101.672421 101.672421 0 0 0-17.92-0.080842h-0.754526c-6.332632 1.077895-12.557474 2.775579-18.593684 5.039158-1.589895 0.700632-3.072 1.509053-4.661895 2.290526a107.870316 107.870316 0 0 0-11.183158 6.736842l-3.179789 2.452211a30.100211 30.100211 0 0 1-41.418106 0 28.725895 28.725895 0 0 1 0-40.879158c4.904421-4.042105 9.512421-8.461474 13.770106-13.204211l1.077894-1.293473c2.263579-3.098947 4.365474-6.332632 6.25179-9.701053 0.592842-1.077895 1.886316-3.853474 2.613895-5.308632 1.428211-3.961263 2.56-8.003368 3.341473-12.126315a84.399158 84.399158 0 0 0 0-13.877895 92.267789 92.267789 0 0 0-4.715789-16.437895 113.448421 113.448421 0 0 0-12.261053-20.210526 176.909474 176.909474 0 0 0-20.641684-20.857263l-4.554105-3.772632-2.048-1.616842c-3.557053-2.613895-7.168-5.12-10.832842-7.545263a197.578105 197.578105 0 0 0-25.061053-14.174316l-3.422316-1.401263a138.778947 138.778947 0 0 0-25.626947-6.979369l-0.323369-0.080842a116.682105 116.682105 0 0 0-21.773473-0.107789c-5.146947 0.916211-10.24 2.263579-15.171369 4.015158-2.452211 1.185684-4.850526 2.506105-7.221895 3.907368-0.107789 0.215579-4.419368 3.584-5.766736 5.012211l-0.188632 0.188631a23.983158 23.983158 0 0 0-1.293474 2.15579 26.812632 26.812632 0 0 0-0.997052 2.694737v0.754526l0.161684 137.485474 0.296421 286.585263 0.188632 246.864842c-0.080842 4.500211 0.350316 7.275789 1.239579 8.353684 1.562947 2.964211 3.368421 5.658947 9.189052 9.674105 3.395368 1.994105 16.653474 8.488421 30.908632 9.943579zM94.962526 340.884211a139.237053 139.237053 0 0 1 61.44-62.517895 132.742737 132.742737 0 0 1 64.026948-14.551579 122.179368 122.179368 0 0 1 21.072842-83.671579 220.321684 220.321684 0 0 1 84.776421-71.545263 150.905263 150.905263 0 0 1 112.936421-11.722106c30.989474 10.590316 57.532632 35.004632 59.176421 68.688843 0.053895 0.673684 0.080842 1.401263 0.080842 2.101894l-0.646737 670.989474a79.575579 79.575579 0 0 1-41.822316 68.823579 156.402526 156.402526 0 0 1-80.222315 17.515789 182.218105 182.218105 0 0 1-77.850948-17.542736 149.800421 149.800421 0 0 1-67.045052-65.724632 103.450947 103.450947 0 0 1-11.452632-48.936421 87.444211 87.444211 0 0 1-24.522105-4.527158 168.205474 168.205474 0 0 1-81.596632-69.335579 161.630316 161.630316 0 0 1-30.477473-96.094316 125.035789 125.035789 0 0 1 36.217263-84.88421c1.024-0.997053 2.074947-1.967158 3.152842-2.937263a106.253474 106.253474 0 0 1-6.521263-5.928421A143.252211 143.252211 0 0 1 76.530526 442.745263c-3.610947-35.031579 2.802526-70.359579 18.53979-101.861052l-0.053895-0.053895z m90.516211 225.091368a76.692211 76.692211 0 0 0-10.078316 2.883368l-2.96421 1.482106a75.722105 75.722105 0 0 0-7.599158 4.581052l-0.269474 0.161684-1.886316 1.670737c-2.209684 1.940211-4.311579 4.042105-6.305684 6.224842l-0.538947 0.646737-2.15579 2.856421c-1.643789 2.479158-3.179789 5.039158-4.608 7.68-0.997053 1.913263-1.886316 3.907368-2.775579 5.901474a104.96 104.96 0 0 0-4.446316 16.976842l-0.269473 2.533053c-0.458105 6.521263-0.377263 13.069474 0.269473 19.563789 1.536 8.838737 4.069053 17.461895 7.545264 25.734737 4.931368 9.808842 10.563368 19.267368 16.815157 28.294737l3.610948 5.01221 1.131789 1.428211c6.656 8.165053 14.066526 15.710316 22.096842 22.501053-0.565895-0.592842 5.200842 3.718737 6.76379 4.661894 3.233684 2.021053 6.521263 3.826526 9.943579 5.470316l3.772631 1.293474c1.536 0.458105 3.072 0.862316 4.608 1.185684 0.646737 0 5.416421 0.592842 7.27579 0.592842 0.916211 0 1.859368-0.080842 2.775579-0.188631 2.586947-0.538947 5.093053-1.266526 7.545263-2.236632 2.694737-1.401263 5.281684-2.937263 7.787789-4.634947l1.293474-1.077895a125.574737 125.574737 0 0 0 5.658947-5.335579 29.911579 29.911579 0 0 1 41.445053 0c11.156211 11.317895 11.156211 29.480421 0 40.771368l-2.910316 3.530106-2.398315 3.47621c-2.425263 3.503158-4.419368 7.275789-6.009264 11.210105a155.594105 155.594105 0 0 0-1.616842 5.389474l-0.40421 1.886316a46.241684 46.241684 0 0 0-0.592842 10.859789c0.134737-0.619789 1.158737 6.009263 1.643789 7.895579 0.377263 1.455158 2.371368 6.467368 2.586947 7.383579 2.344421 4.581053 4.985263 8.946526 7.949474 13.123369-0.808421-1.293474 3.907368 4.769684 5.200842 6.117052 4.149895 4.500211 8.623158 8.677053 13.41979 12.503579 0.107789 0 5.093053 3.637895 6.494316 4.581053 12.234105 8.488421 26.462316 13.743158 41.283368 15.225263l1.886316 0.269474c12.530526 1.455158 25.168842 1.562947 37.726316 0.350315 12.530526-1.185684 15.36-2.209684 24.495157-5.658947 5.524211-2.425263 10.482526-5.928421 14.794106-10.428631 3.449263-4.311579 3.637895-7.114105 3.637894-8.272843v-26.597052c0-62.787368 0.053895-125.547789 0.161685-188.281263-0.538947-144.303158-0.458105-217.896421 0.215579-220.725895l0.107789-71.033263 0.188632-165.376v-3.233684l-0.538948-1.886316-0.808421-1.293474c-0.700632-0.700632-3.584-4.176842-4.931368-5.416421l-0.269474-0.269474-1.643789-1.024a71.949474 71.949474 0 0 0-7.329685-4.015158 91.674947 91.674947 0 0 0-15.171368-3.961263 111.077053 111.077053 0 0 0-21.638737 0.10779l-0.377263 0.080842c-8.380632 1.347368-16.599579 3.530105-24.576 6.467368l-4.554105 1.886316c-11.317895 5.281684-22.096842 11.641263-32.148211 18.997895l-2.775579 2.021052-2.910316 2.236632a166.804211 166.804211 0 0 0-25.249684 24.683789 115.253895 115.253895 0 0 0-12.207158 20.210527 88.387368 88.387368 0 0 0-4.742736 16.437895c-0.350316 3.907368-0.404211 7.814737-0.134737 11.722105 0.242526 1.509053 0.646737 4.554105 0.943158 5.847579a72.757895 72.757895 0 0 0 2.344421 7.787789l0.458105 1.347369 0.40421 0.700631c1.886316 4.015158 4.176842 7.814737 6.709895 11.479579 0.754526 0.943158 2.721684 3.449263 3.557053 4.365474 3.934316 4.365474 8.192 8.407579 12.746105 12.126316a28.672 28.672 0 0 1 0 40.825263 30.181053 30.181053 0 0 1-41.418105 0l-2.101895-1.697684-0.646737-0.458106a109.163789 109.163789 0 0 0-16.249263-9.323789l-3.314526-1.158737a97.495579 97.495579 0 0 0-15.333053-3.907368l-3.610947-0.269474a95.312842 95.312842 0 0 0-9.970527-0.053895l-5.982315 0.538948a102.4 102.4 0 0 0-12.746106 3.125894l-4.069052 1.401263-0.565895 0.269474a106.765474 106.765474 0 0 0-17.192421 9.83579c-5.470316 4.473263-10.509474 9.431579-15.009684 14.874947l-1.13179 1.509053a120.993684 120.993684 0 0 0-11.371789 19.86021l-1.158737 2.937263c-3.206737 9.162105-5.685895 18.593684-7.410526 28.16l-0.727579 4.500211a144.599579 144.599579 0 0 0-0.080842 32.229052l0.754526 4.419369c1.401263 6.790737 3.368421 13.473684 5.874526 19.941052l1.050948 2.101895c1.562947 3.233684 3.314526 6.332632 5.200842 9.377684 0.808421 1.401263 4.015158 5.551158 4.769684 6.736843 3.476211 4.015158 7.275789 7.68 11.398737 10.994526l0.754526 0.512c4.203789 2.883368 8.623158 5.416421 13.285053 7.545263 5.739789 2.101895 11.668211 3.664842 17.704421 4.661895l3.233684 0.269473a28.887579 28.887579 0 1 1 0 57.721264 99.974737 99.974737 0 0 0-10.105263 0.296421l-3.287579 0.619789v0.134737z" p-id="11671"></path><path d="M264.299789 407.794526a26.112 26.112 0 0 1 32.282948-17.946947c48.801684 13.931789 81.300211 72.192 81.30021 138.24 0 62.410105-28.968421 118.029474-73.674105 135.706947-1.616842 0.646737-3.233684 1.212632-4.904421 1.751579a26.112 26.112 0 0 1-18.216421-48.882526l3.907368-1.428211c22.177684-8.784842 40.690526-44.274526 40.690527-87.120842 0-43.573895-19.051789-79.117474-41.229474-87.336421l-2.209684-0.727579a26.112 26.112 0 0 1-17.946948-32.282947z m481.226106 0a26.112 26.112 0 0 0-32.282948-17.946947c-48.828632 13.931789-81.327158 72.192-81.327158 138.24 0 62.410105 28.995368 118.029474 73.674106 135.706947 1.616842 0.646737 3.260632 1.239579 4.904421 1.751579a26.112 26.112 0 0 0 18.243368-48.882526l-3.934316-1.428211c-22.177684-8.784842-40.663579-44.274526-40.663579-87.120842 0-43.573895 19.051789-79.117474 41.229474-87.336421L727.578947 440.050526a26.112 26.112 0 0 0 17.946948-32.282947z" p-id="11672"></path></svg>